HIERARCHY
ROOT hip
{
	OFFSET 0.000000 0.000000 0.000000 
	CHANNELS 6 Xposition Yposition Zposition Xrotation Zrotation Yrotation
	JOINT abdomen
	{
		OFFSET 0.000000 3.402643 0.000000 
		CHANNELS 3 Xrotation Zrotation Yrotation
		JOINT chest
		{
			OFFSET 0.000000 8.438565 -0.680529 
			CHANNELS 3 Xrotation Zrotation Yrotation
			JOINT neck
			{
				OFFSET 0.000000 10.207942 -0.272212 
				CHANNELS 3 Xrotation Zrotation Yrotation
				JOINT head
				{
					OFFSET 0.000000 3.130431 0.000000 
					CHANNELS 3 Xrotation Zrotation Yrotation
					End Site
					{
						OFFSET 0.000000 3.130435 0.000000 
					}
				}
			}
			JOINT lCollar
			{
				OFFSET 3.470700 6.669187 -0.816635 
				CHANNELS 3 Yrotation Zrotation Xrotation
				JOINT lShldr
				{
					OFFSET 3.198488 0.000000 0.000000 
					CHANNELS 3 Zrotation Yrotation Xrotation
					JOINT lForeArm
					{
						OFFSET 10.139888 0.000000 0.000000 
						CHANNELS 3 Yrotation Zrotation Xrotation
						JOINT lHand
						{
							OFFSET 8.370511 0.000000 0.000000 
							CHANNELS 3 Zrotation Yrotation Xrotation
							End Site
							{
								OFFSET 4.083176 0.000000 0.000000 
							}
						}
					}
				}
			}
			JOINT rCollar
			{
				OFFSET -3.470700 6.669187 -0.816635 
				CHANNELS 3 Yrotation Zrotation Xrotation
				JOINT rShldr
				{
					OFFSET -3.198488 0.000000 0.000000 
					CHANNELS 3 Zrotation Yrotation Xrotation
					JOINT rForeArm
					{
						OFFSET -10.139888 0.000000 0.000000 
						CHANNELS 3 Yrotation Zrotation Xrotation
						JOINT rHand
						{
							OFFSET -8.370511 0.000000 0.000000 
							CHANNELS 3 Zrotation Yrotation Xrotation
							End Site
							{
								OFFSET -4.083176 0.000000 0.000000 
							}
						}
					}
				}
			}
		}
	}
	JOINT lThigh
	{
		OFFSET 5.308129 -1.633274 1.361059 
		CHANNELS 3 Xrotation Zrotation Yrotation
		JOINT lShin
		{
			OFFSET -2.041588 -20.007561 0.000000 
			CHANNELS 3 Xrotation Zrotation Yrotation
			JOINT lFoot
			{
				OFFSET 0.000000 -19.190928 -1.224953 
				CHANNELS 3 Xrotation Yrotation Zrotation
				End Site
				{
					OFFSET 0.000000 -2.449906 4.627600 
				}
			}
		}
	}
	JOINT rThigh
	{
		OFFSET -5.308129 -1.633274 1.361059 
		CHANNELS 3 Xrotation Zrotation Yrotation
		JOINT rShin
		{
			OFFSET 2.041588 -20.007561 0.000000 
			CHANNELS 3 Xrotation Zrotation Yrotation
			JOINT rFoot
			{
				OFFSET 0.000000 -19.190928 -1.224953 
				CHANNELS 3 Xrotation Yrotation Zrotation
				End Site
				{
					OFFSET 0.000000 -2.449906 4.627600 
				}
			}
		}
	}
}
MOTION
Frames: 18
Frame Time: 0.033333
0.924251 52.548843 2.192742 -1.943359 2.617188 -0.448773 15.567685 -12.834339 4.317737 -18.593750 8.427735 9.472657 51.553619 8.070152 2.616707 -47.978519 5.673828 -20.498047 2.000000 -2.000000 0.000000 -40.332027 -5.000000 36.805794 -107.968864 0.798208 -3.142771 27.449562 -7.822158 17.299541 -2.000000 2.000000 0.000000 60.947266 29.160154 42.709839 66.673210 0.844760 -2.460899 -63.161449 16.661455 31.533651 -6.544443 -0.238840 19.483315 8.085169 -5.747488 -1.154575 3.336922 16.677656 6.161893 17.475901 -13.631234 -25.097813 34.558563 3.925221 3.315239 5.458063 -22.383732 -7.405842 
2.050583 52.740475 4.491064 -1.943359 2.978516 2.002460 15.996873 -11.667444 3.204187 -18.974611 7.578125 8.906250 51.553619 8.070152 2.616707 -46.396488 3.603515 -19.453127 2.000000 -2.000000 0.000000 -41.591793 -3.427734 36.434963 -107.959381 0.787895 -3.151953 27.130941 -7.664407 17.403933 -2.000000 2.000000 0.000000 61.718750 28.828125 44.897289 66.860237 0.672108 -2.519807 -63.629333 16.568609 31.062132 -3.214049 -1.837647 18.542912 7.720124 -6.280933 -1.119684 1.803844 15.184378 6.457242 13.937715 -17.359179 -24.867708 41.767460 3.656573 3.725538 15.799551 -28.225233 -6.062617 
3.169466 52.843334 6.710466 -2.128906 3.320313 4.433594 16.452997 -10.591112 1.890168 -19.179689 6.884766 8.398438 51.553619 8.070152 2.616707 -45.791016 2.480469 -18.984377 2.000000 -2.000000 0.000000 -42.021484 -2.646484 36.572266 -107.959381 0.787895 -3.151953 27.187262 -7.565253 17.265419 -2.000000 2.000000 0.000000 62.226563 28.525391 45.898438 67.036285 0.682423 -2.528987 -63.942913 16.190340 31.312742 0.166780 -3.641254 17.516352 6.128172 -6.315666 -0.953657 0.854882 13.705903 6.255273 9.636200 -20.242311 -23.315166 47.736233 3.207502 3.814276 23.659769 -31.771404 -3.854190 
4.028333 52.813000 8.622536 -2.119140 3.681641 6.719377 17.096601 -10.002658 0.429953 -19.365234 6.552734 7.969864 51.553619 8.070152 2.616707 -46.494144 2.373047 -19.189457 2.000000 -2.000000 0.000000 -41.503902 -3.076172 36.347130 -107.959381 0.787895 -3.151953 27.974737 -6.538245 16.912643 -2.000000 2.000000 0.000000 62.187500 28.476561 44.814453 67.207489 0.682538 -2.362747 -63.782398 16.140062 31.385214 3.386084 -4.991127 15.904774 4.759354 -6.320192 -0.807082 0.699588 12.635684 6.144905 3.650254 -21.608669 -19.561815 52.687283 3.071182 4.276567 26.085188 -31.695499 -1.676539 
4.744404 52.752274 10.222772 -2.128906 4.033203 9.140625 17.901443 -9.563557 -1.075765 -19.365234 6.552734 7.442522 51.553619 8.070152 2.616707 -47.529301 2.636718 -19.414064 2.000000 -2.000000 0.000000 -39.755856 -4.267578 36.180912 -107.959381 0.787895 -3.151953 29.779984 -5.833851 16.360056 -2.000000 2.000000 0.000000 61.884766 29.013674 43.134766 67.384735 0.490390 -2.422786 -63.141136 16.476692 31.819883 5.846917 -5.747736 13.597662 3.873008 -6.322203 -0.704894 -0.399726 12.069255 5.275736 -3.535675 -21.754538 -14.721296 56.879826 2.886274 4.479802 25.052988 -30.138695 0.042115 
5.348113 52.711533 11.632035 -2.119140 4.384766 11.612075 18.907808 -8.964913 -2.892160 -19.365234 6.552734 6.915176 51.553619 8.070152 2.616707 -48.916016 2.919922 -19.638178 2.000000 -2.000000 0.000000 -38.369141 -5.312500 35.820313 -107.959381 0.787895 -3.151953 30.513016 -5.412201 16.117710 -2.000000 2.000000 0.000000 61.455078 29.365234 40.986324 67.554588 0.791363 -2.552002 -63.218216 16.619383 32.000816 8.542596 -6.257267 10.373557 1.940253 -6.361636 0.011353 -0.661325 12.051009 4.413147 -9.002873 -21.155697 -11.965949 58.270470 2.783115 4.546333 22.097935 -28.012768 0.495124 
5.823642 52.611782 13.031406 -2.128906 4.541016 14.042968 20.076641 -8.519153 -4.773248 -19.541016 6.562500 6.191407 51.553619 8.070152 2.616707 -50.478519 3.417969 -19.902346 2.000000 -2.000000 0.000000 -37.929691 -6.259766 35.419918 -107.941360 0.599841 -3.189966 30.240465 -6.152831 16.326067 -2.000000 2.000000 0.000000 60.986328 29.277344 39.516495 67.745461 0.519385 -2.753656 -64.299980 16.748638 31.859715 11.272290 -6.537466 7.542467 -0.869475 -5.970993 0.176500 0.057792 11.669325 3.159914 -12.381810 -21.041965 -11.601711 56.321926 2.940973 4.434272 18.061136 -26.188822 -0.462354 
6.213055 52.465878 14.524740 -1.943359 4.726563 16.534006 21.190660 -8.142344 -6.501140 -19.541016 6.738282 5.693359 51.553619 8.070152 2.616707 -51.992188 4.228516 -20.166016 2.000000 -2.000000 0.000000 -37.548824 -7.119141 35.672619 -107.959381 0.787895 -3.151953 29.434994 -7.152727 17.009970 -2.000000 2.000000 0.000000 60.517578 28.964844 38.051605 68.097023 0.529134 -2.753092 -65.957603 16.445709 31.632360 14.344326 -6.258945 4.880633 -3.135307 -5.984139 0.127613 0.335858 11.765606 2.256826 -14.450981 -20.619499 -12.657908 52.413567 2.782904 4.419812 13.103863 -23.603014 -1.893073 
6.507405 52.303204 15.984285 -1.767578 4.902344 19.345703 22.310070 -7.896951 -8.328209 -19.707031 6.894531 5.176953 51.553619 8.070152 2.616707 -53.525394 5.058593 -20.498047 2.000000 -2.000000 0.000000 -37.177734 -8.095703 36.004490 -107.784142 0.796518 -3.172008 28.320261 -8.394867 17.613544 -2.000000 2.000000 0.000000 60.429688 28.330082 36.752686 68.272530 0.528569 -2.743346 -67.542435 16.262836 31.301821 16.978928 -5.418237 1.991987 -5.225729 -5.797517 0.509650 0.533407 11.332692 1.842667 -15.885109 -20.236406 -14.217773 47.361263 3.505613 4.102381 8.055935 -20.917458 -3.189466 
6.950233 52.108932 17.903805 -1.611328 4.902344 22.529297 23.186043 -7.499261 -10.093273 -19.697266 7.246094 4.532482 51.553619 8.070152 2.616707 -54.863281 6.044921 -20.869139 2.000000 -2.000000 0.000000 -36.865231 -8.984375 35.887150 -107.784142 0.796518 -3.172008 27.649174 -9.028266 18.183437 -2.000000 2.000000 0.000000 59.501949 28.281248 35.449219 68.624092 0.528569 -2.743347 -68.245010 16.322594 30.941532 19.157814 -4.325487 -0.589054 -5.221437 -5.775831 0.995505 -0.427889 10.302696 1.879482 -16.737047 -19.742897 -17.453760 41.718166 3.622936 4.058498 5.268801 -18.856306 -4.126071 
7.022128 51.851547 19.045128 -1.240234 4.902344 25.908203 24.020199 -7.262613 -11.542971 -19.687500 7.412109 4.034463 51.553619 8.070152 2.616707 -56.210941 7.011718 -21.611326 2.000000 -2.000000 0.000000 -36.474609 -9.775391 35.517578 -107.608917 0.785642 -3.190934 27.368418 -8.830498 18.306759 -2.000000 2.000000 0.000000 58.632809 28.242188 34.433594 69.155777 0.546501 -2.546650 -67.891853 16.009188 31.257187 20.294424 -3.045159 -1.328428 -5.234581 -5.797215 0.364058 -1.943257 8.377405 2.094517 -16.590916 -18.630154 -21.802294 35.073627 4.530656 3.029887 3.832706 -17.623827 -5.452698 
7.415765 51.664684 21.012207 -0.908203 4.726563 29.082836 24.642168 -6.944902 -12.795630 -19.501953 7.753906 3.769531 51.553619 8.070152 2.616707 -57.402344 7.968749 -22.382813 2.000000 -2.000000 0.000000 -36.367191 -11.103516 35.224609 -107.428467 0.795223 -3.025397 27.164051 -8.542755 18.377136 -2.000000 2.000000 0.000000 57.216797 27.578125 33.549442 69.682846 0.555684 -2.536339 -66.776176 16.294321 31.722763 20.494057 -1.396501 -2.164022 -1.229340 -6.295847 -0.172863 -3.892970 6.812203 3.203205 -15.759693 -16.915464 -28.581514 26.787123 4.814306 2.563288 4.200213 -16.764244 -6.900044 
7.572504 51.377808 22.716839 -0.722656 4.541015 31.748045 25.056671 -7.059823 -13.641371 -19.316408 8.105469 3.496094 51.553619 8.070152 2.616707 -58.417973 8.730468 -23.691406 2.000000 -2.000000 0.000000 -36.259766 -12.373047 35.302734 -107.262993 0.803845 -3.045453 27.273121 -8.207770 18.597008 -2.000000 2.000000 0.000000 55.800781 26.855469 32.656250 70.216232 0.382896 -2.761551 -65.481438 16.559074 32.093384 20.770002 0.399821 -2.687210 1.766704 -6.283850 -0.498949 -4.952147 4.983906 3.277741 -13.963829 -14.064165 -35.195461 17.447832 5.379747 1.703557 4.767551 -15.910857 -9.034507 
7.747469 51.024376 24.467995 -0.722656 4.189453 33.681644 24.934420 -7.123990 -14.231669 -18.945314 8.623047 3.300782 51.553619 8.070152 2.616707 -59.062504 9.492187 -25.097658 2.000000 -2.000000 0.000000 -36.533203 -13.837891 35.332027 -107.240517 0.458846 -3.260034 27.422190 -7.901029 18.920835 -2.000000 2.000000 0.000000 55.087891 25.791014 32.451176 70.743294 0.392080 -2.751242 -64.107582 17.003246 32.750904 21.428049 2.147136 -2.700053 4.597739 -6.257222 -0.838922 -5.974714 4.087732 5.004727 -10.927560 -9.000088 -42.698757 4.733937 5.680722 0.555613 5.252200 -14.579954 -12.490054 
7.818450 50.601089 26.273762 -0.908203 3.857422 34.374996 24.429934 -7.615110 -14.425200 -18.388672 9.287109 3.339844 51.553619 8.070152 2.616707 -59.404301 9.833984 -25.732424 2.000000 -2.000000 0.000000 -36.835938 -14.794922 35.976563 -106.912254 0.802153 -3.074689 27.289591 -7.718889 18.704269 -2.000000 2.000000 0.000000 54.160152 24.638672 31.923826 71.092865 0.583106 -2.671645 -63.362053 16.895515 32.948837 22.341278 3.993659 -2.119284 7.594434 -6.200956 -1.162488 -5.520768 3.548862 5.819671 -7.646299 -2.361928 -49.996460 -8.634760 5.512639 -0.659611 5.593409 -12.079515 -15.342428 
7.775301 50.119247 28.047249 -1.240234 3.320313 34.024006 23.562603 -8.455307 -14.350149 -17.451172 10.107423 3.486328 51.553619 8.070152 2.616707 -59.384766 10.371093 -25.466991 2.000000 -2.000000 0.000000 -37.373047 -14.833984 35.661560 -106.731659 0.801763 -3.250535 26.690989 -8.125113 18.920437 -2.000000 2.000000 0.000000 54.550781 24.531252 32.265625 71.094582 0.411013 -2.740368 -63.534714 16.984316 33.022552 23.162779 5.536557 -1.774541 10.269215 -5.701007 -1.373792 -3.996250 4.048995 6.363898 -5.545806 2.541353 -53.267902 -16.938044 5.164564 -1.836685 3.692403 -11.004010 -14.522017 
7.539489 49.755825 29.610130 -1.767578 2.617188 33.125000 22.505653 -9.340961 -13.843190 -16.699221 10.927734 3.818360 51.553619 8.070152 2.616707 -58.994141 11.044921 -24.988365 2.000000 -2.000000 0.000000 -37.558594 -13.789063 34.773064 -106.367699 0.631906 -3.142931 25.564926 -8.690577 18.824417 -2.000000 2.000000 0.000000 55.419922 24.882813 33.402550 70.743286 0.401829 -2.750678 -64.202278 16.763552 32.633732 24.408194 7.575994 -0.748416 12.037862 -6.101831 -1.622786 0.502152 4.325095 7.004785 -3.275818 4.614657 -53.079628 -16.942268 5.367628 -1.537936 5.406607 -12.008611 -14.138414 
7.522295 49.837448 31.230865 -2.470703 1.748047 31.562502 21.602791 -10.052268 -13.303153 -16.123047 11.591798 4.082031 51.553619 8.070152 2.616707 -58.564453 11.884764 -25.037050 2.000000 -2.000000 0.000000 -37.890625 -12.597657 34.997871 -106.016953 0.639965 -3.172730 25.199881 -9.041355 18.872036 -2.000000 2.000000 0.000000 56.503906 25.117188 34.599606 70.382553 0.392332 -2.418697 -64.793083 16.067377 32.316113 27.191940 8.865379 0.627061 10.787770 -5.769729 -1.453794 4.979946 6.596454 10.997991 -0.752873 6.660281 -49.969093 -16.929296 5.376429 -1.538574 7.162911 -14.327821 -12.025091 
